<?xml version="1.0" encoding="UTF-8" standalone="no"?>
<!-- Created with Inkscape (http://www.inkscape.org/) -->

<svg
   width="210mm"
   height="297mm"
   viewBox="0 0 210 297"
   version="1.1"
   id="svg1"
   inkscape:version="1.3 (0e150ed6c4, 2023-07-21)"
   sodipodi:docname="QR codes.svg"
   xmlns:inkscape="http://www.inkscape.org/namespaces/inkscape"
   xmlns:sodipodi="http://sodipodi.sourceforge.net/DTD/sodipodi-0.dtd"
   xmlns="http://www.w3.org/2000/svg"
   xmlns:svg="http://www.w3.org/2000/svg">
  <sodipodi:namedview
     id="namedview1"
     pagecolor="#505050"
     bordercolor="#ffffff"
     borderopacity="1"
     inkscape:showpageshadow="0"
     inkscape:pageopacity="0"
     inkscape:pagecheckerboard="1"
     inkscape:deskcolor="#d1d1d1"
     inkscape:document-units="mm"
     inkscape:zoom="1.4128928"
     inkscape:cx="1419.4283"
     inkscape:cy="1478.8808"
     inkscape:window-width="1920"
     inkscape:window-height="1001"
     inkscape:window-x="-9"
     inkscape:window-y="-9"
     inkscape:window-maximized="1"
     inkscape:current-layer="layer1" />
  <defs
     id="defs1" />
  <g
     inkscape:label="Layer 1"
     inkscape:groupmode="layer"
     id="layer1">
    <g
       style="fill:#292219;stroke:none;fill-opacity:1"
       id="g1"
       transform="matrix(0.264583,0,0,0.264583,333.67006,332.22627)"
       inkscape:export-filename="1 - zine-github-repo.png"
       inkscape:export-xdpi="413.79355"
       inkscape:export-ydpi="413.79355">
      <path
         d="m 123.6,132 h -3.2 c -0.22091,0 -0.4,-0.17909 -0.4,-0.4 v -3.2 c 0,-0.22091 -0.17909,-0.4 -0.4,-0.4 H 116 v -3.6 c 0,-0.22091 -0.17909,-0.4 -0.4,-0.4 h -3.2 c -0.22091,0 -0.4,0.17909 -0.4,0.4 v 3.2 c 0,0.22091 0.17909,0.4 0.4,0.4 h 3.6 v 3.6 c 0,0.22091 -0.17909,0.4 -0.4,0.4 h -11.2 c -0.22091,0 -0.4,-0.17909 -0.4,-0.4 v -7.2 c 0,-0.22091 -0.17909,-0.4 -0.4,-0.4 H 92.4 c -0.220914,0 -0.4,0.17909 -0.4,0.4 v 3.6 h -4 v -3.6 C 88,124.17909 87.820914,124 87.6,124 H 84.4 C 84.179086,124 84,123.82091 84,123.6 V 120 h 7.6 c 0.220914,0 0.4,-0.17909 0.4,-0.4 V 104 h 3.6 c 0.220914,0 0.4,-0.17909 0.4,-0.4 v -3.2 C 96,100.17909 95.820914,100 95.6,100 H 92 v -4 h 3.6 C 95.820914,96 96,95.820914 96,95.6 V 92 h 3.6 c 0.220914,0 0.4,0.179086 0.4,0.4 v 3.2 c 0,0.220914 0.17909,0.4 0.4,0.4 h 3.2 c 0.22091,0 0.4,-0.179086 0.4,-0.4 v -3.2 c 0,-0.220914 0.17909,-0.4 0.4,-0.4 h 3.2 c 0.22091,0 0.4,0.179086 0.4,0.4 v 3.2 c 0,0.220914 0.17909,0.4 0.4,0.4 h 7.2 c 0.22091,0 0.4,0.179086 0.4,0.4 v 3.2 c 0,0.220914 0.17909,0.4 0.4,0.4 h 3.6 v 3.6 c 0,0.22091 0.17909,0.4 0.4,0.4 h 3.2 c 0.22091,0 0.4,0.17909 0.4,0.4 v 3.6 h -7.6 c -0.22091,0 -0.4,0.17909 -0.4,0.4 v 3.2 c 0,0.22091 0.17909,0.4 0.4,0.4 h 3.2 c 0.22091,0 0.4,0.17909 0.4,0.4 v 3.2 c 0,0.22091 0.17909,0.4 0.4,0.4 h 3.2 c 0.22091,0 0.4,0.17909 0.4,0.4 v 3.2 c 0,0.22091 0.17909,0.4 0.4,0.4 h 3.6 v 4 h -3.6 c -0.22091,0 -0.4,0.17909 -0.4,0.4 v 7.2 c 0,0.22091 -0.17909,0.4 -0.4,0.4 z m -28,0 H 92.4 C 92.179086,132 92,131.82091 92,131.6 V 128 h 3.6 c 0.220914,0 0.4,0.17909 0.4,0.4 v 3.2 c 0,0.22091 -0.179086,0.4 -0.4,0.4 z m -8,0 H 76.4 c -0.220914,0 -0.4,-0.17909 -0.4,-0.4 v -3.2 c 0,-0.22091 0.179086,-0.4 0.4,-0.4 H 88 v 3.6 c 0,0.22091 -0.179086,0.4 -0.4,0.4 z m -24,0 h -3.2 c -0.220914,0 -0.4,-0.17909 -0.4,-0.4 v -3.2 C 60,128.17909 59.820914,128 59.6,128 H 56 v -3.6 c 0,-0.22091 0.179086,-0.4 0.4,-0.4 h 3.2 c 0.220914,0 0.4,-0.17909 0.4,-0.4 v -3.2 c 0,-0.22091 0.179086,-0.4 0.4,-0.4 h 7.2 c 0.220914,0 0.4,0.17909 0.4,0.4 v 3.2 c 0,0.22091 -0.179086,0.4 -0.4,0.4 h -3.2 c -0.220914,0 -0.4,0.17909 -0.4,0.4 v 7.2 c 0,0.22091 -0.179086,0.4 -0.4,0.4 z m -8,0 h -7.2 c -0.220914,0 -0.4,-0.17909 -0.4,-0.4 v -7.2 c 0,-0.22091 0.179086,-0.4 0.4,-0.4 h 3.2 c 0.220914,0 0.4,0.17909 0.4,0.4 v 3.2 c 0,0.22091 0.179086,0.4 0.4,0.4 H 56 v 3.6 c 0,0.22091 -0.179086,0.4 -0.4,0.4 z m -12,0 H 16.4 c -0.220914,0 -0.4,-0.17909 -0.4,-0.4 v -27.2 c 0,-0.22091 0.179086,-0.4 0.4,-0.4 h 27.2 c 0.220914,0 0.4,0.17909 0.4,0.4 v 27.2 c 0,0.22091 -0.179086,0.4 -0.4,0.4 z m 88,-4 h -3.2 c -0.22091,0 -0.4,-0.17909 -0.4,-0.4 V 124 h 3.6 c 0.22091,0 0.4,0.17909 0.4,0.4 v 3.2 c 0,0.22091 -0.17909,0.4 -0.4,0.4 z M 40,127.6 V 108.4 C 40,108.17909 39.820914,108 39.6,108 H 20.4 c -0.220914,0 -0.4,0.17909 -0.4,0.4 v 19.2 c 0,0.22091 0.179086,0.4 0.4,0.4 h 19.2 c 0.220914,0 0.4,-0.17909 0.4,-0.4 z M 79.6,124 h -3.2 c -0.220914,0 -0.4,-0.17909 -0.4,-0.4 v -11.2 c 0,-0.22091 0.179086,-0.4 0.4,-0.4 h 7.2 c 0.220914,0 0.4,0.17909 0.4,0.4 v 7.6 h -3.6 c -0.220914,0 -0.4,0.17909 -0.4,0.4 v 3.2 c 0,0.22091 -0.179086,0.4 -0.4,0.4 z m -44,0 H 24.4 c -0.220914,0 -0.4,-0.17909 -0.4,-0.4 v -11.2 c 0,-0.22091 0.179086,-0.4 0.4,-0.4 h 11.2 c 0.220914,0 0.4,0.17909 0.4,0.4 v 11.2 c 0,0.22091 -0.179086,0.4 -0.4,0.4 z m 96,-4 H 128 v -8 h 3.6 c 0.22091,0 0.4,0.17909 0.4,0.4 v 7.2 c 0,0.22091 -0.17909,0.4 -0.4,0.4 z M 116,119.6 v -3.2 c 0,-0.22091 -0.17909,-0.4 -0.4,-0.4 h -11.2 c -0.22091,0 -0.4,0.17909 -0.4,0.4 v 3.2 c 0,0.22091 0.17909,0.4 0.4,0.4 h 11.2 c 0.22091,0 0.4,-0.17909 0.4,-0.4 z M 55.6,120 H 52.4 C 52.179086,120 52,119.82091 52,119.6 V 112 h 3.6 c 0.220914,0 0.4,-0.17909 0.4,-0.4 v -3.2 c 0,-0.22091 0.179086,-0.4 0.4,-0.4 h 3.2 c 0.220914,0 0.4,0.17909 0.4,0.4 v 3.2 c 0,0.22091 0.179086,0.4 0.4,0.4 h 3.2 c 0.220914,0 0.4,-0.17909 0.4,-0.4 v -3.2 c 0,-0.22091 0.179086,-0.4 0.4,-0.4 h 3.2 c 0.220914,0 0.4,-0.17909 0.4,-0.4 v -3.2 C 68,104.17909 67.820914,104 67.6,104 H 64.4 C 64.179086,104 64,103.82091 64,103.6 V 100 h 7.6 c 0.220914,0 0.4,0.17909 0.4,0.4 v 3.2 c 0,0.22091 0.179086,0.4 0.4,0.4 h 3.2 c 0.220914,0 0.4,-0.17909 0.4,-0.4 v -3.2 c 0,-0.22091 0.179086,-0.4 0.4,-0.4 h 3.2 c 0.220914,0 0.4,0.17909 0.4,0.4 v 3.2 c 0,0.22091 0.179086,0.4 0.4,0.4 h 3.2 c 0.220914,0 0.4,-0.17909 0.4,-0.4 V 96 h 4 v 3.6 c 0,0.220914 0.179086,0.4 0.4,0.4 H 92 v 4 h -3.6 c -0.220914,0 -0.4,0.17909 -0.4,0.4 v 3.2 c 0,0.22091 -0.179086,0.4 -0.4,0.4 H 72.4 c -0.220914,0 -0.4,0.17909 -0.4,0.4 v 7.2 c 0,0.22091 -0.179086,0.4 -0.4,0.4 H 56.4 c -0.220914,0 -0.4,0.17909 -0.4,0.4 v 3.2 c 0,0.22091 -0.179086,0.4 -0.4,0.4 z m 72,-8 h -3.2 c -0.22091,0 -0.4,-0.17909 -0.4,-0.4 V 108 h 3.6 c 0.22091,0 0.4,0.17909 0.4,0.4 V 112 Z M 112,111.6 v -11.2 c 0,-0.22091 -0.17909,-0.4 -0.4,-0.4 h -11.2 c -0.22091,0 -0.4,0.17909 -0.4,0.4 v 11.2 c 0,0.22091 0.17909,0.4 0.4,0.4 h 11.2 c 0.22091,0 0.4,-0.17909 0.4,-0.4 z M 51.6,112 H 48.4 C 48.179086,112 48,111.82091 48,111.6 V 100 h 4 v 12 z m 56,-4 h -3.2 c -0.22091,0 -0.4,-0.17909 -0.4,-0.4 v -3.2 c 0,-0.22091 0.17909,-0.4 0.4,-0.4 h 3.2 c 0.22091,0 0.4,0.17909 0.4,0.4 v 3.2 c 0,0.22091 -0.17909,0.4 -0.4,0.4 z m -48,-4 H 56.4 C 56.179086,104 56,103.82091 56,103.6 V 100 h 4 v 3.6 c 0,0.22091 -0.179086,0.4 -0.4,0.4 z m 72,-4 H 120 v -3.6 c 0,-0.220914 0.17909,-0.4 0.4,-0.4 h 11.2 c 0.22091,0 0.4,0.179086 0.4,0.4 v 3.2 c 0,0.220914 -0.17909,0.4 -0.4,0.4 z m -68,0 H 60 V 96.4 C 60,96.179086 59.820914,96 59.6,96 H 56 v -8 h 3.6 c 0.220914,0 0.4,0.179086 0.4,0.4 v 3.2 c 0,0.220914 0.179086,0.4 0.4,0.4 H 64 v 8 z m -8,0 H 52 v -4 h 4 v 4 z m -8,0 H 36.4 C 36.179086,100 36,99.820914 36,99.6 V 96.4 C 36,96.179086 36.179086,96 36.4,96 H 48 v 4 z m -20,0 H 24.4 C 24.179086,100 24,99.820914 24,99.6 V 92 h 3.6 C 27.820914,92 28,91.820914 28,91.6 V 88 h 4 v 7.6 C 32,95.820914 31.820914,96 31.6,96 H 28.4 C 28.179086,96 28,96.179086 28,96.4 v 3.2 c 0,0.220914 -0.179086,0.4 -0.4,0.4 z m -8,0 H 16.4 C 16.179086,100 16,99.820914 16,99.6 V 84.4 C 16,84.179086 16.179086,84 16.4,84 h 3.2 c 0.220914,0 0.4,0.179086 0.4,0.4 v 3.2 c 0,0.220914 0.179086,0.4 0.4,0.4 H 24 v 4 H 20.4 C 20.179086,92 20,92.179086 20,92.4 v 7.2 c 0,0.220914 -0.179086,0.4 -0.4,0.4 z m 72,-4 H 88 V 92.4 C 88,92.179086 87.820914,92 87.6,92 H 84.4 C 84.179086,92 84,92.179086 84,92.4 V 96 H 80.4 C 80.179086,96 80,95.820914 80,95.6 V 92.4 C 80,92.179086 79.820914,92 79.6,92 H 76.4 C 76.179086,92 76,92.179086 76,92.4 v 3.2 C 76,95.820914 75.820914,96 75.6,96 H 72.4 C 72.179086,96 72,95.820914 72,95.6 V 92.4 C 72,92.179086 71.820914,92 71.6,92 H 64 V 88.4 C 64,88.179086 64.179086,88 64.4,88 H 75.6 C 75.820914,88 76,87.820914 76,87.6 V 84 h 3.6 c 0.220914,0 0.4,0.179086 0.4,0.4 v 3.2 c 0,0.220914 0.179086,0.4 0.4,0.4 H 91.6 C 91.820914,88 92,87.820914 92,87.6 V 76.4 C 92,76.179086 92.179086,76 92.4,76 H 96 V 92 H 92.4 C 92.179086,92 92,92.179086 92,92.4 V 96 Z m -40,0 H 48 v -4 h 3.6 c 0.220914,0 0.4,0.179086 0.4,0.4 V 96 Z m 80,-4 h -3.2 C 128.17909,92 128,91.820914 128,91.6 V 88.4 C 128,88.179086 127.82091,88 127.6,88 H 120 V 84.4 C 120,84.179086 119.82091,84 119.6,84 H 116 v -4 h 3.6 c 0.22091,0 0.4,-0.179086 0.4,-0.4 v -3.2 c 0,-0.220914 -0.17909,-0.4 -0.4,-0.4 h -3.2 c -0.22091,0 -0.4,0.179086 -0.4,0.4 V 80 h -3.6 c -0.22091,0 -0.4,0.179086 -0.4,0.4 v 3.2 c 0,0.220914 0.17909,0.4 0.4,0.4 h 3.6 v 3.6 c 0,0.220914 0.17909,0.4 0.4,0.4 h 3.6 v 3.6 c 0,0.220914 -0.17909,0.4 -0.4,0.4 h -7.2 c -0.22091,0 -0.4,-0.179086 -0.4,-0.4 v -3.2 c 0,-0.220914 -0.17909,-0.4 -0.4,-0.4 h -7.2 C 104.17909,88 104,87.820914 104,87.6 V 84 h 3.6 c 0.22091,0 0.4,-0.179086 0.4,-0.4 v -7.2 c 0,-0.220914 0.17909,-0.4 0.4,-0.4 h 3.2 c 0.22091,0 0.4,-0.179086 0.4,-0.4 V 72.4 C 112,72.179086 111.82091,72 111.6,72 H 104 v -8 h 7.6 c 0.22091,0 0.4,0.179086 0.4,0.4 v 3.2 c 0,0.220914 0.17909,0.4 0.4,0.4 h 3.2 c 0.22091,0 0.4,0.179086 0.4,0.4 v 3.2 c 0,0.220914 0.17909,0.4 0.4,0.4 h 7.6 v 11.6 c 0,0.220914 0.17909,0.4 0.4,0.4 h 7.2 c 0.22091,0 0.4,0.179086 0.4,0.4 v 7.2 c 0,0.220914 -0.17909,0.4 -0.4,0.4 z m -84,0 H 40.4 C 40.179086,92 40,91.820914 40,91.6 V 88 h 3.6 C 43.820914,88 44,87.820914 44,87.6 V 84 h 3.6 c 0.220914,0 0.4,0.179086 0.4,0.4 V 92 Z m 8,-4 H 52.4 C 52.179086,88 52,87.820914 52,87.6 V 84.4 C 52,84.179086 52.179086,84 52.4,84 H 56 v 4 z m -16,0 H 32 V 84.4 C 32,84.179086 32.179086,84 32.4,84 h 3.2 C 35.820914,84 36,83.820914 36,83.6 V 80 h 8 v 4 H 40.4 C 40.179086,84 40,84.179086 40,84.4 V 88 Z m -12,0 H 24 V 84.4 C 24,84.179086 24.179086,84 24.4,84 h 3.2 c 0.220914,0 0.4,0.179086 0.4,0.4 V 88 Z m 76,-4 h -3.2 c -0.22091,0 -0.4,-0.179086 -0.4,-0.4 v -3.2 c 0,-0.220914 0.17909,-0.4 0.4,-0.4 h 3.2 c 0.22091,0 0.4,0.179086 0.4,0.4 V 84 Z m -16,0 H 84.4 C 84.179086,84 84,83.820914 84,83.6 V 80.4 C 84,80.179086 84.179086,80 84.4,80 h 3.2 c 0.220914,0 0.4,0.179086 0.4,0.4 v 3.2 c 0,0.220914 -0.179086,0.4 -0.4,0.4 z m -12,0 H 72.4 C 72.179086,84 72,83.820914 72,83.6 V 80.4 C 72,80.179086 71.820914,80 71.6,80 H 68.4 C 68.179086,80 68,80.179086 68,80.4 v 3.2 C 68,83.820914 67.820914,84 67.6,84 H 64.4 C 64.179086,84 64,83.820914 64,83.6 V 76.4 C 64,76.179086 64.179086,76 64.4,76 h 3.2 C 67.820914,76 68,75.820914 68,75.6 V 72.4 C 68,72.179086 67.820914,72 67.6,72 H 64.4 C 64.179086,72 64,71.820914 64,71.6 V 68.4 C 64,68.179086 64.179086,68 64.4,68 h 3.2 C 67.820914,68 68,67.820914 68,67.6 V 64.4 C 68,64.179086 68.179086,64 68.4,64 h 3.2 C 71.820914,64 72,63.820914 72,63.6 V 60.4 C 72,60.179086 72.179086,60 72.4,60 h 3.2 C 75.820914,60 76,59.820914 76,59.6 V 56.4 C 76,56.179086 75.820914,56 75.6,56 H 72.4 C 72.179086,56 72,55.820914 72,55.6 V 48 h 3.6 c 0.220914,0 0.4,0.179086 0.4,0.4 v 3.2 c 0,0.220914 0.179086,0.4 0.4,0.4 h 3.2 c 0.220914,0 0.4,0.179086 0.4,0.4 V 63.6 C 80,63.820914 79.820914,64 79.6,64 H 76.4 C 76.179086,64 76,64.179086 76,64.4 v 3.2 c 0,0.220914 0.179086,0.4 0.4,0.4 H 87.6 C 87.820914,68 88,67.820914 88,67.6 V 60.4 C 88,60.179086 88.179086,60 88.4,60 h 3.2 c 0.220914,0 0.4,0.179086 0.4,0.4 v 3.2 c 0,0.220914 0.179086,0.4 0.4,0.4 h 3.2 c 0.220914,0 0.4,0.179086 0.4,0.4 v 3.2 c 0,0.220914 0.179086,0.4 0.4,0.4 h 3.2 c 0.220914,0 0.4,0.179086 0.4,0.4 v 3.2 c 0,0.220914 0.17909,0.4 0.4,0.4 h 3.6 v 3.6 c 0,0.220914 -0.17909,0.4 -0.4,0.4 H 96 V 72.4 C 96,72.179086 95.820914,72 95.6,72 H 84.4 C 84.179086,72 84,72.179086 84,72.4 v 3.2 C 84,75.820914 83.820914,76 83.6,76 H 80.4 C 80.179086,76 80,76.179086 80,76.4 v 3.2 C 80,79.820914 79.820914,80 79.6,80 H 76.4 C 76.179086,80 76,80.179086 76,80.4 V 84 Z m -16,0 H 56 V 80.4 C 56,80.179086 56.179086,80 56.4,80 h 3.2 c 0.220914,0 0.4,0.179086 0.4,0.4 v 3.2 c 0,0.220914 -0.179086,0.4 -0.4,0.4 z m 72,-4 h -3.2 c -0.22091,0 -0.4,-0.179086 -0.4,-0.4 v -3.2 c 0,-0.220914 0.17909,-0.4 0.4,-0.4 h 3.2 c 0.22091,0 0.4,0.179086 0.4,0.4 v 3.2 c 0,0.220914 -0.17909,0.4 -0.4,0.4 z m -80,0 H 44 V 76.4 C 44,76.179086 43.820914,76 43.6,76 H 40.4 C 40.179086,76 40,75.820914 40,75.6 V 72.4 C 40,72.179086 40.179086,72 40.4,72 h 3.2 C 43.820914,72 44,71.820914 44,71.6 V 68.4 C 44,68.179086 43.820914,68 43.6,68 H 40.4 C 40.179086,68 40,67.820914 40,67.6 V 64 h 8 v 3.6 c 0,0.220914 0.179086,0.4 0.4,0.4 H 52 v 3.6 c 0,0.220914 0.179086,0.4 0.4,0.4 h 3.2 C 55.820914,72 56,71.820914 56,71.6 V 68.4 C 56,68.179086 55.820914,68 55.6,68 H 52 v -4 h 3.6 C 55.820914,64 56,63.820914 56,63.6 V 60 h 3.6 C 59.820914,60 60,59.820914 60,59.6 V 56 h 7.6 c 0.220914,0 0.4,0.179086 0.4,0.4 v 3.2 C 68,59.820914 67.820914,60 67.6,60 H 64.4 C 64.179086,60 64,60.179086 64,60.4 v 3.2 C 64,63.820914 63.820914,64 63.6,64 H 60.4 C 60.179086,64 60,64.179086 60,64.4 V 75.6 C 60,75.820914 59.820914,76 59.6,76 H 52.4 C 52.179086,76 52,76.179086 52,76.4 v 3.2 c 0,0.220914 -0.179086,0.4 -0.4,0.4 z m -16,0 H 28.4 C 28.179086,80 28,79.820914 28,79.6 V 76.4 C 28,76.179086 27.820914,76 27.6,76 H 20.4 C 20.179086,76 20,75.820914 20,75.6 V 72 h 3.6 C 23.820914,72 24,71.820914 24,71.6 V 68 h 3.6 c 0.220914,0 0.4,0.179086 0.4,0.4 v 3.2 c 0,0.220914 0.179086,0.4 0.4,0.4 H 32 v 3.6 c 0,0.220914 0.179086,0.4 0.4,0.4 h 3.2 c 0.220914,0 0.4,0.179086 0.4,0.4 V 80 Z m 96,-8 H 124 v -3.6 c 0,-0.220914 0.17909,-0.4 0.4,-0.4 h 3.2 c 0.22091,0 0.4,-0.179086 0.4,-0.4 v -3.2 c 0,-0.220914 0.17909,-0.4 0.4,-0.4 h 3.2 c 0.22091,0 0.4,0.179086 0.4,0.4 v 7.2 c 0,0.220914 -0.17909,0.4 -0.4,0.4 z m -96,0 H 32 V 68.4 C 32,68.179086 32.179086,68 32.4,68 h 3.2 c 0.220914,0 0.4,0.179086 0.4,0.4 v 3.2 c 0,0.220914 -0.179086,0.4 -0.4,0.4 z m -16,0 H 16.4 C 16.179086,72 16,71.820914 16,71.6 V 68.4 C 16,68.179086 16.179086,68 16.4,68 H 20 v 4 z m 4,-4 H 20 v -4 h 3.6 c 0.220914,0 0.4,0.179086 0.4,0.4 V 68 Z m 96,-4 h -3.2 C 116.17909,64 116,63.820914 116,63.6 V 60 h 3.6 c 0.22091,0 0.4,0.179086 0.4,0.4 v 3.2 c 0,0.220914 -0.17909,0.4 -0.4,0.4 z m -16,0 h -3.2 c -0.22091,0 -0.4,-0.179086 -0.4,-0.4 v -3.2 c 0,-0.220914 0.17909,-0.4 0.4,-0.4 h 3.2 c 0.22091,0 0.4,0.179086 0.4,0.4 V 64 Z m -52,0 H 48 V 52 h 4 v 3.6 c 0,0.220914 0.179086,0.4 0.4,0.4 H 56 v 4 H 52.4 C 52.179086,60 52,60.179086 52,60.4 V 64 Z m -12,0 H 28.4 C 28.179086,64 28,63.820914 28,63.6 V 60.4 C 28,60.179086 27.820914,60 27.6,60 H 24.4 C 24.179086,60 24,59.820914 24,59.6 V 52 h 12 v 4 H 32.4 C 32.179086,56 32,56.179086 32,56.4 v 3.2 c 0,0.220914 0.179086,0.4 0.4,0.4 h 3.2 C 35.820914,60 36,59.820914 36,59.6 V 56 h 7.6 c 0.220914,0 0.4,0.179086 0.4,0.4 v 3.2 C 44,59.820914 43.820914,60 43.6,60 H 40.4 C 40.179086,60 40,60.179086 40,60.4 V 64 Z m -20,0 H 16.4 C 16.179086,64 16,63.820914 16,63.6 V 48.4 C 16,48.179086 16.179086,48 16.4,48 h 7.2 c 0.220914,0 0.4,0.179086 0.4,0.4 V 52 H 20.4 C 20.179086,52 20,52.179086 20,52.4 V 64 Z m 96,-4 h -3.2 c -0.22091,0 -0.4,-0.179086 -0.4,-0.4 v -3.2 c 0,-0.220914 -0.17909,-0.4 -0.4,-0.4 h -3.2 c -0.22091,0 -0.4,-0.179086 -0.4,-0.4 v -3.2 c 0,-0.220914 0.17909,-0.4 0.4,-0.4 h 3.2 c 0.22091,0 0.4,-0.179086 0.4,-0.4 v -3.2 c 0,-0.220914 0.17909,-0.4 0.4,-0.4 h 7.2 c 0.22091,0 0.4,0.179086 0.4,0.4 V 52 h -3.6 c -0.22091,0 -0.4,0.179086 -0.4,0.4 V 60 Z m 12,-4 h -7.2 C 120.17909,56 120,55.820914 120,55.6 V 52 h 7.6 c 0.22091,0 0.4,0.179086 0.4,0.4 v 3.2 c 0,0.220914 -0.17909,0.4 -0.4,0.4 z m -24,0 h -3.2 c -0.22091,0 -0.4,-0.179086 -0.4,-0.4 v -3.2 c 0,-0.220914 0.17909,-0.4 0.4,-0.4 h 3.2 c 0.22091,0 0.4,0.179086 0.4,0.4 v 3.2 c 0,0.220914 -0.17909,0.4 -0.4,0.4 z m -8,0 H 92.4 C 92.179086,56 92,55.820914 92,55.6 V 44 h 3.6 C 95.820914,44 96,43.820914 96,43.6 V 36.4 C 96,36.179086 95.820914,36 95.6,36 H 88.4 C 88.179086,36 88,35.820914 88,35.6 V 32 h 7.6 C 95.820914,32 96,31.820914 96,31.6 V 28 h 3.6 c 0.220914,0 0.4,0.179086 0.4,0.4 v 19.2 c 0,0.220914 -0.179086,0.4 -0.4,0.4 H 96.4 C 96.179086,48 96,48.179086 96,48.4 v 7.2 c 0,0.220914 -0.179086,0.4 -0.4,0.4 z m -36,0 H 56 V 52.4 C 56,52.179086 55.820914,52 55.6,52 H 52 v -8 h 4 v 3.6 c 0,0.220914 0.179086,0.4 0.4,0.4 h 3.2 c 0.220914,0 0.4,0.179086 0.4,0.4 V 56 Z m 28,-4 H 84.4 C 84.179086,52 84,51.820914 84,51.6 V 48.4 C 84,48.179086 84.179086,48 84.4,48 h 3.2 c 0.220914,0 0.4,0.179086 0.4,0.4 v 3.2 c 0,0.220914 -0.179086,0.4 -0.4,0.4 z m -20,0 H 64.4 C 64.179086,52 64,51.820914 64,51.6 V 40.4 C 64,40.179086 64.179086,40 64.4,40 H 68 v 3.6 c 0,0.220914 0.179086,0.4 0.4,0.4 H 72 v 4 H 68.4 C 68.179086,48 68,48.179086 68,48.4 v 3.2 c 0,0.220914 -0.179086,0.4 -0.4,0.4 z m -20,0 H 36 V 48.4 C 36,48.179086 36.179086,48 36.4,48 h 11.2 c 0.220914,0 0.4,0.179086 0.4,0.4 V 52 Z m 84,-8 H 104.4 C 104.17909,44 104,43.820914 104,43.6 V 16.4 c 0,-0.220914 0.17909,-0.4 0.4,-0.4 h 27.2 c 0.22091,0 0.4,0.179086 0.4,0.4 v 27.2 c 0,0.220914 -0.17909,0.4 -0.4,0.4 z m -40,0 H 88.4 C 88.179086,44 88,43.820914 88,43.6 V 40.4 C 88,40.179086 88.179086,40 88.4,40 h 3.2 c 0.220914,0 0.4,0.179086 0.4,0.4 V 44 Z m -8,0 H 80.4 C 80.179086,44 80,43.820914 80,43.6 V 32.4 C 80,32.179086 79.820914,32 79.6,32 H 72 V 20.4 C 72,20.179086 71.820914,20 71.6,20 H 68 V 16.4 C 68,16.179086 68.179086,16 68.4,16 h 7.2 c 0.220914,0 0.4,0.179086 0.4,0.4 v 11.2 c 0,0.220914 0.179086,0.4 0.4,0.4 h 3.2 C 79.820914,28 80,27.820914 80,27.6 V 24.4 C 80,24.179086 80.179086,24 80.4,24 H 84 v 3.6 c 0,0.220914 0.179086,0.4 0.4,0.4 h 3.2 c 0.220914,0 0.4,0.179086 0.4,0.4 V 32 H 84.4 C 84.179086,32 84,32.179086 84,32.4 v 11.2 c 0,0.220914 -0.179086,0.4 -0.4,0.4 z m -8,0 H 72 V 40.4 C 72,40.179086 71.820914,40 71.6,40 H 68 V 36.4 C 68,36.179086 67.820914,36 67.6,36 H 64.4 C 64.179086,36 64,35.820914 64,35.6 V 32 h 8 v 3.6 c 0,0.220914 0.179086,0.4 0.4,0.4 h 3.2 c 0.220914,0 0.4,0.179086 0.4,0.4 v 7.2 c 0,0.220914 -0.179086,0.4 -0.4,0.4 z m -16,0 H 56 V 40.4 C 56,40.179086 55.820914,40 55.6,40 H 52 v -4 h 3.6 C 55.820914,36 56,35.820914 56,35.6 V 28.4 C 56,28.179086 55.820914,28 55.6,28 H 52 V 24.4 C 52,24.179086 52.179086,24 52.4,24 h 7.2 C 59.820914,24 60,23.820914 60,23.6 V 20.4 C 60,20.179086 59.820914,20 59.6,20 H 52.4 C 52.179086,20 52,19.820914 52,19.6 V 16.4 C 52,16.179086 52.179086,16 52.4,16 h 11.2 c 0.220914,0 0.4,0.179086 0.4,0.4 v 3.2 c 0,0.220914 0.179086,0.4 0.4,0.4 H 68 v 3.6 C 68,23.820914 67.820914,24 67.6,24 H 64.4 C 64.179086,24 64,24.179086 64,24.4 V 32 H 60.4 C 60.179086,32 60,32.179086 60,32.4 v 11.2 c 0,0.220914 -0.179086,0.4 -0.4,0.4 z m -8,0 H 48.4 C 48.179086,44 48,43.820914 48,43.6 V 40.4 C 48,40.179086 48.179086,40 48.4,40 H 52 v 4 z m -8,0 H 16.4 C 16.179086,44 16,43.820914 16,43.6 V 16.4 C 16,16.179086 16.179086,16 16.4,16 h 27.2 c 0.220914,0 0.4,0.179086 0.4,0.4 V 43.6 C 44,43.820914 43.820914,44 43.6,44 Z M 128,39.6 V 20.4 c 0,-0.220914 -0.17909,-0.4 -0.4,-0.4 h -19.2 c -0.22091,0 -0.4,0.179086 -0.4,0.4 v 19.2 c 0,0.220914 0.17909,0.4 0.4,0.4 h 19.2 c 0.22091,0 0.4,-0.179086 0.4,-0.4 z m -88,0 V 20.4 C 40,20.179086 39.820914,20 39.6,20 H 20.4 C 20.179086,20 20,20.179086 20,20.4 v 19.2 c 0,0.220914 0.179086,0.4 0.4,0.4 H 39.6 C 39.820914,40 40,39.820914 40,39.6 Z M 123.6,36 H 112.4 C 112.17909,36 112,35.820914 112,35.6 V 24.4 c 0,-0.220914 0.17909,-0.4 0.4,-0.4 h 11.2 c 0.22091,0 0.4,0.179086 0.4,0.4 v 11.2 c 0,0.220914 -0.17909,0.4 -0.4,0.4 z m -72,0 H 48.4 C 48.179086,36 48,35.820914 48,35.6 V 28.4 C 48,28.179086 48.179086,28 48.4,28 H 52 v 8 z m -16,0 H 24.4 C 24.179086,36 24,35.820914 24,35.6 V 24.4 C 24,24.179086 24.179086,24 24.4,24 h 11.2 c 0.220914,0 0.4,0.179086 0.4,0.4 v 11.2 c 0,0.220914 -0.179086,0.4 -0.4,0.4 z m 60,-8 H 92.4 C 92.179086,28 92,27.820914 92,27.6 V 24 h 4 v 4 z m 4,-4 H 96 V 20.4 C 96,20.179086 96.179086,20 96.4,20 h 3.2 c 0.220914,0 0.4,0.179086 0.4,0.4 v 3.2 c 0,0.220914 -0.179086,0.4 -0.4,0.4 z m -8,0 H 84 V 20.4 C 84,20.179086 84.179086,20 84.4,20 h 3.2 C 87.820914,20 88,19.820914 88,19.6 V 16.4 C 88,16.179086 88.179086,16 88.4,16 h 3.2 c 0.220914,0 0.4,0.179086 0.4,0.4 V 24 Z"
         id="path1"
         style="fill:#292219;fill-opacity:1" />
    </g>
    <g
       style="fill:#292219;stroke:none;fill-opacity:1"
       id="g2"
       transform="matrix(0.264583,0,0,0.264583,334.73362,386.60567)"
       inkscape:export-filename="2 - zine-code-repo.png"
       inkscape:export-xdpi="413.79355"
       inkscape:export-ydpi="413.79355">
      <path
         d="m 123.6,132 h -3.2 c -0.22091,0 -0.4,-0.17909 -0.4,-0.4 v -3.2 c 0,-0.22091 -0.17909,-0.4 -0.4,-0.4 H 116 v -3.6 c 0,-0.22091 -0.17909,-0.4 -0.4,-0.4 h -3.2 c -0.22091,0 -0.4,0.17909 -0.4,0.4 v 3.2 c 0,0.22091 0.17909,0.4 0.4,0.4 h 3.6 v 3.6 c 0,0.22091 -0.17909,0.4 -0.4,0.4 h -11.2 c -0.22091,0 -0.4,-0.17909 -0.4,-0.4 v -7.2 c 0,-0.22091 -0.17909,-0.4 -0.4,-0.4 H 92.4 c -0.220914,0 -0.4,0.17909 -0.4,0.4 v 3.6 h -4 v -3.6 C 88,124.17909 87.820914,124 87.6,124 H 84.4 C 84.179086,124 84,123.82091 84,123.6 V 120 h 7.6 c 0.220914,0 0.4,-0.17909 0.4,-0.4 V 104 h 3.6 c 0.220914,0 0.4,-0.17909 0.4,-0.4 v -3.2 C 96,100.17909 95.820914,100 95.6,100 H 92 v -4 h 3.6 C 95.820914,96 96,95.820914 96,95.6 V 92 h 3.6 c 0.220914,0 0.4,0.179086 0.4,0.4 v 3.2 c 0,0.220914 0.17909,0.4 0.4,0.4 h 3.2 c 0.22091,0 0.4,-0.179086 0.4,-0.4 v -3.2 c 0,-0.220914 0.17909,-0.4 0.4,-0.4 h 3.2 c 0.22091,0 0.4,0.179086 0.4,0.4 v 3.2 c 0,0.220914 0.17909,0.4 0.4,0.4 h 7.2 c 0.22091,0 0.4,0.179086 0.4,0.4 v 3.2 c 0,0.220914 0.17909,0.4 0.4,0.4 h 3.6 v 3.6 c 0,0.22091 0.17909,0.4 0.4,0.4 h 3.2 c 0.22091,0 0.4,0.17909 0.4,0.4 v 3.6 h -7.6 c -0.22091,0 -0.4,0.17909 -0.4,0.4 v 3.2 c 0,0.22091 0.17909,0.4 0.4,0.4 h 3.2 c 0.22091,0 0.4,0.17909 0.4,0.4 v 3.2 c 0,0.22091 0.17909,0.4 0.4,0.4 h 3.2 c 0.22091,0 0.4,0.17909 0.4,0.4 v 3.2 c 0,0.22091 0.17909,0.4 0.4,0.4 h 3.6 v 4 h -3.6 c -0.22091,0 -0.4,0.17909 -0.4,0.4 v 7.2 c 0,0.22091 -0.17909,0.4 -0.4,0.4 z m -28,0 H 92.4 C 92.179086,132 92,131.82091 92,131.6 V 128 h 3.6 c 0.220914,0 0.4,0.17909 0.4,0.4 v 3.2 c 0,0.22091 -0.179086,0.4 -0.4,0.4 z m -8,0 H 76.4 c -0.220914,0 -0.4,-0.17909 -0.4,-0.4 v -3.2 c 0,-0.22091 0.179086,-0.4 0.4,-0.4 H 88 v 3.6 c 0,0.22091 -0.179086,0.4 -0.4,0.4 z m -24,0 h -3.2 c -0.220914,0 -0.4,-0.17909 -0.4,-0.4 v -3.2 c 0,-0.22091 -0.179086,-0.4 -0.4,-0.4 h -3.2 c -0.220914,0 -0.4,-0.17909 -0.4,-0.4 v -3.2 c 0,-0.22091 0.179086,-0.4 0.4,-0.4 h 3.2 c 0.220914,0 0.4,-0.17909 0.4,-0.4 v -3.2 c 0,-0.22091 0.179086,-0.4 0.4,-0.4 h 7.2 c 0.220914,0 0.4,0.17909 0.4,0.4 v 3.2 c 0,0.22091 -0.179086,0.4 -0.4,0.4 h -3.2 c -0.220914,0 -0.4,0.17909 -0.4,0.4 v 7.2 c 0,0.22091 -0.179086,0.4 -0.4,0.4 z m -12,0 h -3.2 c -0.220914,0 -0.4,-0.17909 -0.4,-0.4 v -7.2 c 0,-0.22091 0.179086,-0.4 0.4,-0.4 h 3.2 c 0.220914,0 0.4,0.17909 0.4,0.4 v 7.2 c 0,0.22091 -0.179086,0.4 -0.4,0.4 z m -8,0 H 16.4 c -0.220914,0 -0.4,-0.17909 -0.4,-0.4 v -27.2 c 0,-0.22091 0.179086,-0.4 0.4,-0.4 h 27.2 c 0.220914,0 0.4,0.17909 0.4,0.4 v 27.2 c 0,0.22091 -0.179086,0.4 -0.4,0.4 z m 88,-4 h -3.2 c -0.22091,0 -0.4,-0.17909 -0.4,-0.4 V 124 h 3.6 c 0.22091,0 0.4,0.17909 0.4,0.4 v 3.2 c 0,0.22091 -0.17909,0.4 -0.4,0.4 z M 40,127.6 V 108.4 C 40,108.17909 39.820914,108 39.6,108 H 20.4 c -0.220914,0 -0.4,0.17909 -0.4,0.4 v 19.2 c 0,0.22091 0.179086,0.4 0.4,0.4 h 19.2 c 0.220914,0 0.4,-0.17909 0.4,-0.4 z M 79.6,124 h -3.2 c -0.220914,0 -0.4,-0.17909 -0.4,-0.4 v -11.2 c 0,-0.22091 0.179086,-0.4 0.4,-0.4 h 7.2 c 0.220914,0 0.4,0.17909 0.4,0.4 v 7.6 h -3.6 c -0.220914,0 -0.4,0.17909 -0.4,0.4 v 3.2 c 0,0.22091 -0.179086,0.4 -0.4,0.4 z m -44,0 H 24.4 c -0.220914,0 -0.4,-0.17909 -0.4,-0.4 v -11.2 c 0,-0.22091 0.179086,-0.4 0.4,-0.4 h 11.2 c 0.220914,0 0.4,0.17909 0.4,0.4 v 11.2 c 0,0.22091 -0.179086,0.4 -0.4,0.4 z m 96,-4 H 128 v -8 h 3.6 c 0.22091,0 0.4,0.17909 0.4,0.4 v 7.2 c 0,0.22091 -0.17909,0.4 -0.4,0.4 z M 116,119.6 v -3.2 c 0,-0.22091 -0.17909,-0.4 -0.4,-0.4 h -11.2 c -0.22091,0 -0.4,0.17909 -0.4,0.4 v 3.2 c 0,0.22091 0.17909,0.4 0.4,0.4 h 11.2 c 0.22091,0 0.4,-0.17909 0.4,-0.4 z M 71.6,116 H 52.4 c -0.220914,0 -0.4,-0.17909 -0.4,-0.4 v -3.2 C 52,112.17909 51.820914,112 51.6,112 H 48.4 C 48.179086,112 48,111.82091 48,111.6 V 100 h 4 v 7.6 c 0,0.22091 0.179086,0.4 0.4,0.4 h 3.2 c 0.220914,0 0.4,0.17909 0.4,0.4 v 3.2 c 0,0.22091 0.179086,0.4 0.4,0.4 h 7.2 c 0.220914,0 0.4,-0.17909 0.4,-0.4 v -3.2 c 0,-0.22091 0.179086,-0.4 0.4,-0.4 h 3.2 c 0.220914,0 0.4,-0.17909 0.4,-0.4 v -3.2 C 68,104.17909 67.820914,104 67.6,104 H 64.4 C 64.179086,104 64,103.82091 64,103.6 V 100 h 7.6 c 0.220914,0 0.4,0.17909 0.4,0.4 v 3.2 c 0,0.22091 0.179086,0.4 0.4,0.4 h 3.2 c 0.220914,0 0.4,-0.17909 0.4,-0.4 v -3.2 c 0,-0.22091 0.179086,-0.4 0.4,-0.4 h 3.2 c 0.220914,0 0.4,0.17909 0.4,0.4 v 3.2 c 0,0.22091 0.179086,0.4 0.4,0.4 h 3.2 c 0.220914,0 0.4,-0.17909 0.4,-0.4 V 96 h 4 v 3.6 c 0,0.220914 0.179086,0.4 0.4,0.4 H 92 v 4 h -3.6 c -0.220914,0 -0.4,0.17909 -0.4,0.4 v 3.2 c 0,0.22091 -0.179086,0.4 -0.4,0.4 H 72.4 c -0.220914,0 -0.4,0.17909 -0.4,0.4 v 7.2 c 0,0.22091 -0.179086,0.4 -0.4,0.4 z m 56,-4 h -3.2 c -0.22091,0 -0.4,-0.17909 -0.4,-0.4 V 108 h 3.6 c 0.22091,0 0.4,0.17909 0.4,0.4 V 112 Z M 112,111.6 v -11.2 c 0,-0.22091 -0.17909,-0.4 -0.4,-0.4 h -11.2 c -0.22091,0 -0.4,0.17909 -0.4,0.4 v 11.2 c 0,0.22091 0.17909,0.4 0.4,0.4 h 11.2 c 0.22091,0 0.4,-0.17909 0.4,-0.4 z m -4.4,-3.6 h -3.2 c -0.22091,0 -0.4,-0.17909 -0.4,-0.4 v -3.2 c 0,-0.22091 0.17909,-0.4 0.4,-0.4 h 3.2 c 0.22091,0 0.4,0.17909 0.4,0.4 v 3.2 c 0,0.22091 -0.17909,0.4 -0.4,0.4 z m 24,-8 H 120 v -3.6 c 0,-0.220914 0.17909,-0.4 0.4,-0.4 h 11.2 c 0.22091,0 0.4,0.179086 0.4,0.4 v 3.2 c 0,0.220914 -0.17909,0.4 -0.4,0.4 z m -68,0 H 52 V 96.4 C 52,96.179086 52.179086,96 52.4,96 h 3.2 C 55.820914,96 56,95.820914 56,95.6 V 92.4 C 56,92.179086 55.820914,92 55.6,92 H 52.4 C 52.179086,92 52,91.820914 52,91.6 V 88 h 7.6 c 0.220914,0 0.4,0.179086 0.4,0.4 v 3.2 c 0,0.220914 0.179086,0.4 0.4,0.4 H 64 v 8 z m -16,0 H 36.4 C 36.179086,100 36,99.820914 36,99.6 V 96.4 C 36,96.179086 36.179086,96 36.4,96 h 11.2 c 0.220914,0 0.4,0.179086 0.4,0.4 v 3.6 z m -28,0 H 16.4 C 16.179086,100 16,99.820914 16,99.6 V 84.4 C 16,84.179086 16.179086,84 16.4,84 h 3.2 c 0.220914,0 0.4,0.179086 0.4,0.4 v 3.2 c 0,0.220914 0.179086,0.4 0.4,0.4 h 3.2 c 0.220914,0 0.4,0.179086 0.4,0.4 v 3.2 C 24,91.820914 23.820914,92 23.6,92 H 20.4 C 20.179086,92 20,92.179086 20,92.4 v 7.2 c 0,0.220914 -0.179086,0.4 -0.4,0.4 z m 72,-4 H 88 V 92.4 C 88,92.179086 87.820914,92 87.6,92 H 84.4 C 84.179086,92 84,92.179086 84,92.4 V 96 H 80.4 C 80.179086,96 80,95.820914 80,95.6 V 92.4 C 80,92.179086 79.820914,92 79.6,92 H 76.4 C 76.179086,92 76,92.179086 76,92.4 v 3.2 C 76,95.820914 75.820914,96 75.6,96 H 72.4 C 72.179086,96 72,95.820914 72,95.6 V 92.4 C 72,92.179086 71.820914,92 71.6,92 H 64 V 88.4 C 64,88.179086 64.179086,88 64.4,88 H 75.6 C 75.820914,88 76,87.820914 76,87.6 V 84 h 3.6 c 0.220914,0 0.4,0.179086 0.4,0.4 v 3.2 c 0,0.220914 0.179086,0.4 0.4,0.4 H 91.6 C 91.820914,88 92,87.820914 92,87.6 V 76.4 C 92,76.179086 92.179086,76 92.4,76 H 96 V 92 H 92.4 C 92.179086,92 92,92.179086 92,92.4 V 96 Z m 40,-4 h -3.2 C 128.17909,92 128,91.820914 128,91.6 V 88.4 C 128,88.179086 127.82091,88 127.6,88 H 120 V 84.4 C 120,84.179086 119.82091,84 119.6,84 H 116 v -4 h 3.6 c 0.22091,0 0.4,-0.179086 0.4,-0.4 v -3.2 c 0,-0.220914 -0.17909,-0.4 -0.4,-0.4 h -3.2 c -0.22091,0 -0.4,0.179086 -0.4,0.4 V 80 h -3.6 c -0.22091,0 -0.4,0.179086 -0.4,0.4 v 3.2 c 0,0.220914 0.17909,0.4 0.4,0.4 h 3.6 v 3.6 c 0,0.220914 0.17909,0.4 0.4,0.4 h 3.6 v 3.6 c 0,0.220914 -0.17909,0.4 -0.4,0.4 h -7.2 c -0.22091,0 -0.4,-0.179086 -0.4,-0.4 v -3.2 c 0,-0.220914 -0.17909,-0.4 -0.4,-0.4 h -7.2 C 104.17909,88 104,87.820914 104,87.6 V 84 h 3.6 c 0.22091,0 0.4,-0.179086 0.4,-0.4 v -7.2 c 0,-0.220914 0.17909,-0.4 0.4,-0.4 h 3.2 c 0.22091,0 0.4,-0.179086 0.4,-0.4 V 72.4 C 112,72.179086 111.82091,72 111.6,72 H 104 v -8 h 7.6 c 0.22091,0 0.4,0.179086 0.4,0.4 v 3.2 c 0,0.220914 0.17909,0.4 0.4,0.4 h 3.2 c 0.22091,0 0.4,0.179086 0.4,0.4 v 3.2 c 0,0.220914 0.17909,0.4 0.4,0.4 h 7.6 v 11.6 c 0,0.220914 0.17909,0.4 0.4,0.4 h 7.2 c 0.22091,0 0.4,0.179086 0.4,0.4 v 7.2 c 0,0.220914 -0.17909,0.4 -0.4,0.4 z m -88,0 H 32.4 C 32.179086,92 32,91.820914 32,91.6 V 88.4 C 32,88.179086 32.179086,88 32.4,88 h 3.2 C 35.820914,88 36,87.820914 36,87.6 V 84.4 C 36,84.179086 35.820914,84 35.6,84 H 32.4 C 32.179086,84 32,83.820914 32,83.6 V 80 h 3.6 C 35.820914,80 36,79.820914 36,79.6 V 76.4 C 36,76.179086 35.820914,76 35.6,76 H 32 V 72.4 C 32,72.179086 31.820914,72 31.6,72 H 28 v -4 h 3.6 C 31.820914,68 32,67.820914 32,67.6 V 64.4 C 32,64.179086 31.820914,64 31.6,64 H 28.4 C 28.179086,64 28,64.179086 28,64.4 V 68 H 16.4 C 16.179086,68 16,67.820914 16,67.6 V 60.4 C 16,60.179086 16.179086,60 16.4,60 H 27.6 C 27.820914,60 28,59.820914 28,59.6 V 56 h 4 v 3.6 c 0,0.220914 0.179086,0.4 0.4,0.4 h 3.2 c 0.220914,0 0.4,0.179086 0.4,0.4 v 7.2 c 0,0.220914 0.179086,0.4 0.4,0.4 H 40 v 3.6 c 0,0.220914 0.179086,0.4 0.4,0.4 H 44 v 3.6 C 44,75.820914 43.820914,76 43.6,76 H 40.4 C 40.179086,76 40,76.179086 40,76.4 v 3.2 c 0,0.220914 0.179086,0.4 0.4,0.4 H 51.6 C 51.820914,80 52,79.820914 52,79.6 V 76.4 C 52,76.179086 51.820914,76 51.6,76 H 48.4 C 48.179086,76 48,75.820914 48,75.6 V 72 h 3.6 C 51.820914,72 52,71.820914 52,71.6 V 68.4 C 52,68.179086 51.820914,68 51.6,68 H 48 V 64.4 C 48,64.179086 47.820914,64 47.6,64 H 44 v -4 h 8 v 3.6 c 0,0.220914 0.179086,0.4 0.4,0.4 h 3.2 C 55.820914,64 56,63.820914 56,63.6 V 60 h 3.6 C 59.820914,60 60,59.820914 60,59.6 V 56 h 7.6 c 0.220914,0 0.4,0.179086 0.4,0.4 v 3.2 C 68,59.820914 67.820914,60 67.6,60 H 64.4 C 64.179086,60 64,60.179086 64,60.4 v 3.2 C 64,63.820914 63.820914,64 63.6,64 H 60.4 C 60.179086,64 60,64.179086 60,64.4 V 83.6 C 60,83.820914 59.820914,84 59.6,84 H 52.4 C 52.179086,84 52,84.179086 52,84.4 V 88 H 44 V 84.4 C 44,84.179086 43.820914,84 43.6,84 H 40.4 C 40.179086,84 40,84.179086 40,84.4 v 3.2 c 0,0.220914 0.179086,0.4 0.4,0.4 H 44 v 3.6 c 0,0.220914 -0.179086,0.4 -0.4,0.4 z m 60,-8 h -3.2 c -0.22091,0 -0.4,-0.179086 -0.4,-0.4 v -3.2 c 0,-0.220914 0.17909,-0.4 0.4,-0.4 h 3.2 c 0.22091,0 0.4,0.179086 0.4,0.4 V 84 Z m -16,0 H 84.4 C 84.179086,84 84,83.820914 84,83.6 V 80.4 C 84,80.179086 84.179086,80 84.4,80 h 3.2 c 0.220914,0 0.4,0.179086 0.4,0.4 v 3.2 c 0,0.220914 -0.179086,0.4 -0.4,0.4 z m -12,0 H 72.4 C 72.179086,84 72,83.820914 72,83.6 V 80.4 C 72,80.179086 71.820914,80 71.6,80 H 68.4 C 68.179086,80 68,80.179086 68,80.4 v 3.2 C 68,83.820914 67.820914,84 67.6,84 H 64.4 C 64.179086,84 64,83.820914 64,83.6 V 76.4 C 64,76.179086 64.179086,76 64.4,76 h 3.2 C 67.820914,76 68,75.820914 68,75.6 V 72.4 C 68,72.179086 67.820914,72 67.6,72 H 64.4 C 64.179086,72 64,71.820914 64,71.6 V 68.4 C 64,68.179086 64.179086,68 64.4,68 h 3.2 C 67.820914,68 68,67.820914 68,67.6 V 64.4 C 68,64.179086 68.179086,64 68.4,64 h 3.2 C 71.820914,64 72,63.820914 72,63.6 V 60.4 C 72,60.179086 72.179086,60 72.4,60 h 3.2 C 75.820914,60 76,59.820914 76,59.6 V 56.4 C 76,56.179086 75.820914,56 75.6,56 H 72.4 C 72.179086,56 72,55.820914 72,55.6 V 48 h 4 v 3.6 c 0,0.220914 0.179086,0.4 0.4,0.4 h 3.2 c 0.220914,0 0.4,0.179086 0.4,0.4 v 3.2 c 0,0.220914 0.179086,0.4 0.4,0.4 h 3.2 c 0.220914,0 0.4,0.179086 0.4,0.4 v 3.2 C 84,59.820914 83.820914,60 83.6,60 H 80.4 C 80.179086,60 80,60.179086 80,60.4 v 3.2 c 0,0.220914 0.179086,0.4 0.4,0.4 h 3.2 c 0.220914,0 0.4,0.179086 0.4,0.4 v 3.2 c 0,0.220914 0.179086,0.4 0.4,0.4 h 3.2 C 87.820914,68 88,67.820914 88,67.6 V 60.4 C 88,60.179086 88.179086,60 88.4,60 h 3.2 c 0.220914,0 0.4,0.179086 0.4,0.4 v 3.2 c 0,0.220914 0.179086,0.4 0.4,0.4 h 3.2 c 0.220914,0 0.4,0.179086 0.4,0.4 v 3.2 c 0,0.220914 0.179086,0.4 0.4,0.4 h 3.2 c 0.220914,0 0.4,0.179086 0.4,0.4 v 3.2 c 0,0.220914 0.17909,0.4 0.4,0.4 h 3.6 v 3.6 c 0,0.220914 -0.17909,0.4 -0.4,0.4 H 96 V 72.4 C 96,72.179086 95.820914,72 95.6,72 H 84.4 C 84.179086,72 84,72.179086 84,72.4 v 3.2 C 84,75.820914 83.820914,76 83.6,76 H 80.4 C 80.179086,76 80,76.179086 80,76.4 v 3.2 C 80,79.820914 79.820914,80 79.6,80 H 76.4 C 76.179086,80 76,80.179086 76,80.4 V 84 Z m 56,-4 h -3.2 c -0.22091,0 -0.4,-0.179086 -0.4,-0.4 v -3.2 c 0,-0.220914 0.17909,-0.4 0.4,-0.4 h 3.2 c 0.22091,0 0.4,0.179086 0.4,0.4 v 3.2 c 0,0.220914 -0.17909,0.4 -0.4,0.4 z m -100,0 H 20.4 C 20.179086,80 20,79.820914 20,79.6 V 76 h 3.6 C 23.820914,76 24,75.820914 24,75.6 V 72.4 C 24,72.179086 24.179086,72 24.4,72 H 28 v 3.6 c 0,0.220914 0.179086,0.4 0.4,0.4 H 32 v 4 z m -12,-4 H 16.4 C 16.179086,76 16,75.820914 16,75.6 V 72.4 C 16,72.179086 16.179086,72 16.4,72 h 3.2 c 0.220914,0 0.4,0.179086 0.4,0.4 V 76 Z m 112,-4 H 124 v -3.6 c 0,-0.220914 0.17909,-0.4 0.4,-0.4 h 3.2 c 0.22091,0 0.4,-0.179086 0.4,-0.4 v -3.2 c 0,-0.220914 0.17909,-0.4 0.4,-0.4 h 3.2 c 0.22091,0 0.4,0.179086 0.4,0.4 v 7.2 c 0,0.220914 -0.17909,0.4 -0.4,0.4 z m -84,0 H 44 v -4 h 4 v 4 z m -4,-4 H 40 V 64.4 C 40,64.179086 40.179086,64 40.4,64 H 44 v 4 z m 76,-4 h -3.2 C 116.17909,64 116,63.820914 116,63.6 V 60 h 3.6 c 0.22091,0 0.4,0.179086 0.4,0.4 v 3.2 c 0,0.220914 -0.17909,0.4 -0.4,0.4 z m -16,0 h -3.2 c -0.22091,0 -0.4,-0.179086 -0.4,-0.4 v -3.2 c 0,-0.220914 0.17909,-0.4 0.4,-0.4 h 3.2 c 0.22091,0 0.4,0.179086 0.4,0.4 V 64 Z m 12,-4 h -3.2 c -0.22091,0 -0.4,-0.179086 -0.4,-0.4 v -3.2 c 0,-0.220914 -0.17909,-0.4 -0.4,-0.4 h -3.2 c -0.22091,0 -0.4,-0.179086 -0.4,-0.4 v -3.2 c 0,-0.220914 0.17909,-0.4 0.4,-0.4 h 3.2 c 0.22091,0 0.4,-0.179086 0.4,-0.4 v -3.2 c 0,-0.220914 0.17909,-0.4 0.4,-0.4 h 7.2 c 0.22091,0 0.4,0.179086 0.4,0.4 V 52 h -3.6 c -0.22091,0 -0.4,0.179086 -0.4,0.4 V 60 Z m -60,0 H 52 V 56.4 C 52,56.179086 52.179086,56 52.4,56 H 56 v 4 z m -12,0 H 40.4 C 40.179086,60 40,59.820914 40,59.6 V 56 h 4 v 4 z m 84,-4 h -7.2 C 120.17909,56 120,55.820914 120,55.6 V 52 h 7.6 c 0.22091,0 0.4,0.179086 0.4,0.4 v 3.2 c 0,0.220914 -0.17909,0.4 -0.4,0.4 z m -24,0 h -3.2 c -0.22091,0 -0.4,-0.179086 -0.4,-0.4 v -3.2 c 0,-0.220914 0.17909,-0.4 0.4,-0.4 h 3.2 c 0.22091,0 0.4,0.179086 0.4,0.4 v 3.2 c 0,0.220914 -0.17909,0.4 -0.4,0.4 z m -8,0 H 92.4 C 92.179086,56 92,55.820914 92,55.6 V 44 h 3.6 C 95.820914,44 96,43.820914 96,43.6 V 36.4 C 96,36.179086 95.820914,36 95.6,36 H 88.4 C 88.179086,36 88,35.820914 88,35.6 V 32 h 7.6 C 95.820914,32 96,31.820914 96,31.6 V 28 h 3.6 c 0.220914,0 0.4,0.179086 0.4,0.4 v 19.2 c 0,0.220914 -0.179086,0.4 -0.4,0.4 H 96.4 C 96.179086,48 96,48.179086 96,48.4 v 7.2 c 0,0.220914 -0.179086,0.4 -0.4,0.4 z m -36,0 H 56 V 52.4 C 56,52.179086 55.820914,52 55.6,52 H 52.4 C 52.179086,52 52,51.820914 52,51.6 V 44 h 4 v 3.6 c 0,0.220914 0.179086,0.4 0.4,0.4 h 3.2 c 0.220914,0 0.4,0.179086 0.4,0.4 V 56 Z m -12,0 H 44 V 52.4 C 44,52.179086 43.820914,52 43.6,52 H 40.4 C 40.179086,52 40,52.179086 40,52.4 V 56 H 32 V 52.4 C 32,52.179086 32.179086,52 32.4,52 h 3.2 C 35.820914,52 36,51.820914 36,51.6 V 48.4 C 36,48.179086 36.179086,48 36.4,48 h 11.2 c 0.220914,0 0.4,0.179086 0.4,0.4 v 7.2 c 0,0.220914 -0.179086,0.4 -0.4,0.4 z m -20,0 H 24.4 C 24.179086,56 24,55.820914 24,55.6 V 52 h 3.6 c 0.220914,0 0.4,0.179086 0.4,0.4 V 56 Z m 60,-4 H 84.4 C 84.179086,52 84,51.820914 84,51.6 V 48 h 3.6 c 0.220914,0 0.4,0.179086 0.4,0.4 v 3.2 c 0,0.220914 -0.179086,0.4 -0.4,0.4 z m -20,0 H 64.4 C 64.179086,52 64,51.820914 64,51.6 V 40.4 C 64,40.179086 64.179086,40 64.4,40 H 68 v 3.6 c 0,0.220914 0.179086,0.4 0.4,0.4 H 72 v 4 H 68.4 C 68.179086,48 68,48.179086 68,48.4 v 3.2 c 0,0.220914 -0.179086,0.4 -0.4,0.4 z m -44,0 H 16.4 C 16.179086,52 16,51.820914 16,51.6 V 48.4 C 16,48.179086 16.179086,48 16.4,48 h 7.2 c 0.220914,0 0.4,0.179086 0.4,0.4 V 52 Z m 60,-4 H 76 v -4 h 3.6 C 79.820914,44 80,43.820914 80,43.6 V 28.4 C 80,28.179086 79.820914,28 79.6,28 H 76.4 C 76.179086,28 76,28.179086 76,28.4 v 3.2 C 76,31.820914 75.820914,32 75.6,32 H 72 V 20.4 C 72,20.179086 71.820914,20 71.6,20 H 68 V 16.4 C 68,16.179086 68.179086,16 68.4,16 h 7.2 c 0.220914,0 0.4,0.179086 0.4,0.4 v 7.2 c 0,0.220914 0.179086,0.4 0.4,0.4 H 84 v 3.6 c 0,0.220914 0.179086,0.4 0.4,0.4 h 3.2 c 0.220914,0 0.4,0.179086 0.4,0.4 V 32 H 84.4 C 84.179086,32 84,32.179086 84,32.4 V 48 Z m 48,-4 H 104.4 C 104.17909,44 104,43.820914 104,43.6 V 16.4 c 0,-0.220914 0.17909,-0.4 0.4,-0.4 h 27.2 c 0.22091,0 0.4,0.179086 0.4,0.4 v 27.2 c 0,0.220914 -0.17909,0.4 -0.4,0.4 z m -40,0 H 88.4 C 88.179086,44 88,43.820914 88,43.6 V 40.4 C 88,40.179086 88.179086,40 88.4,40 h 3.2 c 0.220914,0 0.4,0.179086 0.4,0.4 V 44 Z m -16,0 H 72 V 40.4 C 72,40.179086 71.820914,40 71.6,40 H 68 V 36.4 C 68,36.179086 67.820914,36 67.6,36 H 64.4 C 64.179086,36 64,35.820914 64,35.6 V 32 h 8 v 3.6 c 0,0.220914 0.179086,0.4 0.4,0.4 h 3.2 c 0.220914,0 0.4,0.179086 0.4,0.4 V 44 Z m -16,0 H 56 V 40.4 C 56,40.179086 55.820914,40 55.6,40 H 52 v -4 h 3.6 C 55.820914,36 56,35.820914 56,35.6 V 28.4 C 56,28.179086 55.820914,28 55.6,28 H 52 V 24.4 C 52,24.179086 52.179086,24 52.4,24 h 7.2 C 59.820914,24 60,23.820914 60,23.6 V 20.4 C 60,20.179086 59.820914,20 59.6,20 H 52.4 C 52.179086,20 52,19.820914 52,19.6 V 16.4 C 52,16.179086 52.179086,16 52.4,16 h 11.2 c 0.220914,0 0.4,0.179086 0.4,0.4 v 3.2 c 0,0.220914 0.179086,0.4 0.4,0.4 H 68 v 3.6 C 68,23.820914 67.820914,24 67.6,24 H 64.4 C 64.179086,24 64,24.179086 64,24.4 V 32 H 60.4 C 60.179086,32 60,32.179086 60,32.4 v 11.2 c 0,0.220914 -0.179086,0.4 -0.4,0.4 z m -8,0 H 48.4 C 48.179086,44 48,43.820914 48,43.6 V 40.4 C 48,40.179086 48.179086,40 48.4,40 H 52 v 4 z m -8,0 H 16.4 C 16.179086,44 16,43.820914 16,43.6 V 16.4 C 16,16.179086 16.179086,16 16.4,16 h 27.2 c 0.220914,0 0.4,0.179086 0.4,0.4 V 43.6 C 44,43.820914 43.820914,44 43.6,44 Z M 128,39.6 V 20.4 c 0,-0.220914 -0.17909,-0.4 -0.4,-0.4 h -19.2 c -0.22091,0 -0.4,0.179086 -0.4,0.4 v 19.2 c 0,0.220914 0.17909,0.4 0.4,0.4 h 19.2 c 0.22091,0 0.4,-0.179086 0.4,-0.4 z m -88,0 V 20.4 C 40,20.179086 39.820914,20 39.6,20 H 20.4 C 20.179086,20 20,20.179086 20,20.4 v 19.2 c 0,0.220914 0.179086,0.4 0.4,0.4 H 39.6 C 39.820914,40 40,39.820914 40,39.6 Z M 123.6,36 H 112.4 C 112.17909,36 112,35.820914 112,35.6 V 24.4 c 0,-0.220914 0.17909,-0.4 0.4,-0.4 h 11.2 c 0.22091,0 0.4,0.179086 0.4,0.4 v 11.2 c 0,0.220914 -0.17909,0.4 -0.4,0.4 z m -72,0 H 48.4 C 48.179086,36 48,35.820914 48,35.6 V 28.4 C 48,28.179086 48.179086,28 48.4,28 H 52 v 8 z m -16,0 H 24.4 C 24.179086,36 24,35.820914 24,35.6 V 24.4 C 24,24.179086 24.179086,24 24.4,24 h 11.2 c 0.220914,0 0.4,0.179086 0.4,0.4 v 11.2 c 0,0.220914 -0.179086,0.4 -0.4,0.4 z m 60,-8 H 92.4 C 92.179086,28 92,27.820914 92,27.6 V 24 h 4 v 4 z m 4,-4 H 96 V 20.4 C 96,20.179086 96.179086,20 96.4,20 h 3.2 c 0.220914,0 0.4,0.179086 0.4,0.4 v 3.2 c 0,0.220914 -0.179086,0.4 -0.4,0.4 z m -8,0 H 84 V 20.4 C 84,20.179086 84.179086,20 84.4,20 h 3.2 C 87.820914,20 88,19.820914 88,19.6 V 16.4 C 88,16.179086 88.179086,16 88.4,16 h 3.2 c 0.220914,0 0.4,0.179086 0.4,0.4 V 24 Z"
         id="path2"
         style="fill:#292219;fill-opacity:1" />
    </g>
  </g>
</svg>
